<?xml version="1.0" encoding="utf-8"?>
<!DOCTYPE svg PUBLIC "-//W3C//DTD SVG 1.1//EN" "http://www.w3.org/Graphics/SVG/1.1/DTD/svg11.dtd">
<svg version="1.1" id="Ebene_1" xmlns="http://www.w3.org/2000/svg" xmlns:xlink="http://www.w3.org/1999/xlink" x="0px" y="0px"
	 width="136px" height="42px" viewBox="0 0 136 42" enable-background="new 0 0 136 42" xml:space="preserve">
<g>
	<path d="M21.759,18.915c0,1.067-0.129,2.1-0.387,3.097s-0.619,1.938-1.082,2.823c-0.464,0.887-1.018,1.695-1.663,2.429
		c-0.645,0.733-1.36,1.364-2.146,1.892s-1.625,0.938-2.516,1.231c-0.892,0.293-1.812,0.44-2.763,0.44
		c-1.479,0-2.81-0.312-3.994-0.934c-1.186-0.621-2.188-1.453-3.009-2.498c-0.821-1.044-1.452-2.246-1.892-3.607
		c-0.44-1.36-0.66-2.779-0.66-4.258c0-1.595,0.261-3.114,0.783-4.557c0.521-1.443,1.249-2.71,2.182-3.801s2.047-1.959,3.344-2.604
		c1.296-0.645,2.718-0.968,4.267-0.968c1.548,0,2.915,0.32,4.1,0.959c1.185,0.64,2.182,1.487,2.991,2.543s1.419,2.264,1.83,3.625
		C21.554,16.088,21.759,17.483,21.759,18.915z M17.325,19.231c0-1.208-0.144-2.375-0.431-3.501
		c-0.288-1.127-0.695-2.123-1.224-2.991c-0.527-0.868-1.161-1.561-1.9-2.077c-0.738-0.516-1.56-0.773-2.463-0.773
		c-0.845,0-1.593,0.208-2.243,0.624c-0.651,0.417-1.197,1.015-1.637,1.795s-0.771,1.736-0.994,2.868S6.1,17.59,6.1,19.021
		c0,1.313,0.155,2.546,0.466,3.695c0.311,1.148,0.733,2.148,1.267,3c0.534,0.85,1.155,1.519,1.865,2.006
		c0.71,0.486,1.47,0.729,2.279,0.729c0.773,0,1.486-0.188,2.138-0.563c0.65-0.375,1.214-0.947,1.688-1.715
		c0.476-0.768,0.848-1.73,1.118-2.886C17.19,22.132,17.325,20.78,17.325,19.231z"/>
	<path d="M41.132,21.378c0,0.681-0.123,1.388-0.369,2.12c-0.247,0.733-0.587,1.449-1.021,2.147c-0.435,0.697-0.948,1.36-1.54,1.988
		c-0.593,0.627-1.229,1.178-1.909,1.653s-1.398,0.851-2.155,1.126s-1.511,0.414-2.261,0.414c-0.317,0-0.722-0.057-1.215-0.168
		c-0.492-0.111-1.029-0.267-1.609-0.466c-0.581-0.199-1.194-0.435-1.839-0.704c-0.646-0.27-1.284-0.562-1.918-0.879V8.023
		c0-0.54-0.021-0.956-0.062-1.249c-0.041-0.294-0.138-0.514-0.29-0.66c-0.153-0.146-0.37-0.243-0.651-0.29s-0.663-0.1-1.144-0.159
		V4.434c0.551-0.094,1.07-0.185,1.557-0.272c0.487-0.088,0.956-0.188,1.408-0.299c0.451-0.111,0.895-0.235,1.328-0.37
		s0.868-0.29,1.302-0.466c0.047,0.047,0.111,0.108,0.194,0.185c0.082,0.076,0.17,0.155,0.264,0.237
		c0.105,0.094,0.211,0.193,0.316,0.299v12.44c0.587-0.504,1.164-0.933,1.733-1.284c0.568-0.353,1.114-0.64,1.637-0.862
		c0.521-0.223,1.003-0.384,1.442-0.484c0.44-0.1,0.83-0.149,1.17-0.149c0.868,0,1.648,0.188,2.341,0.563
		c0.691,0.375,1.281,0.909,1.768,1.601c0.487,0.692,0.862,1.528,1.127,2.508C41,19.059,41.132,20.158,41.132,21.378z M37.243,22.979
		c0-1.173-0.103-2.173-0.308-3c-0.206-0.827-0.484-1.505-0.836-2.032c-0.352-0.528-0.766-0.912-1.24-1.152
		c-0.476-0.24-0.983-0.361-1.522-0.361c-0.411,0-0.936,0.141-1.575,0.423c-0.639,0.281-1.387,0.786-2.243,1.513v8.094
		c0.938,0.505,1.769,0.865,2.49,1.082c0.721,0.218,1.252,0.325,1.592,0.325c0.61,0,1.144-0.129,1.602-0.387
		c0.457-0.258,0.839-0.607,1.144-1.047s0.53-0.956,0.678-1.549C37.17,24.296,37.243,23.659,37.243,22.979z"/>
	<path d="M50.018,28.416c0,1.36-0.12,2.505-0.36,3.431c-0.241,0.928-0.552,1.717-0.933,2.367c-0.382,0.65-0.81,1.196-1.285,1.637
		c-0.475,0.439-0.947,0.848-1.416,1.223c-0.316,0.246-0.669,0.484-1.056,0.713c-0.388,0.229-0.783,0.431-1.188,0.606
		c-0.405,0.177-0.804,0.317-1.197,0.423c-0.393,0.105-0.753,0.158-1.082,0.158c-0.457,0-0.93-0.059-1.416-0.176
		s-0.93-0.262-1.328-0.432c-0.399-0.17-0.728-0.35-0.985-0.537c-0.259-0.188-0.388-0.346-0.388-0.475
		c0-0.164,0.126-0.393,0.379-0.686c0.252-0.294,0.545-0.588,0.879-0.881c0.335-0.293,0.669-0.562,1.003-0.809
		c0.335-0.246,0.59-0.411,0.766-0.493c0.188,0.235,0.417,0.44,0.687,0.616s0.545,0.325,0.827,0.449
		c0.281,0.123,0.56,0.217,0.836,0.281c0.275,0.064,0.524,0.096,0.747,0.096c0.306,0,0.596-0.084,0.871-0.254
		c0.275-0.171,0.52-0.487,0.73-0.951c0.211-0.463,0.378-1.111,0.501-1.943c0.124-0.834,0.186-1.912,0.186-3.238V18.897
		c0-0.599-0.007-1.079-0.018-1.443c-0.013-0.363-0.088-0.647-0.229-0.854c-0.141-0.205-0.369-0.354-0.686-0.448
		c-0.317-0.094-0.78-0.176-1.391-0.246v-1.232c0.622-0.081,1.164-0.167,1.628-0.255c0.463-0.088,0.895-0.182,1.293-0.281
		s0.789-0.208,1.17-0.325c0.382-0.117,0.807-0.253,1.276-0.405h1.179V28.416z M50.739,8.111c0,0.398-0.074,0.763-0.221,1.091
		s-0.352,0.61-0.615,0.845c-0.265,0.234-0.575,0.416-0.933,0.545c-0.358,0.13-0.748,0.194-1.17,0.194
		c-0.329,0-0.64-0.038-0.933-0.115c-0.294-0.076-0.552-0.196-0.774-0.36s-0.399-0.366-0.528-0.607
		c-0.129-0.24-0.193-0.53-0.193-0.87c0-0.399,0.076-0.763,0.229-1.091c0.152-0.329,0.364-0.607,0.634-0.836
		c0.27-0.229,0.583-0.408,0.941-0.537c0.357-0.129,0.742-0.193,1.152-0.193c0.316,0,0.622,0.038,0.915,0.114
		s0.548,0.193,0.766,0.352C50.226,6.801,50.401,7,50.536,7.24S50.739,7.771,50.739,8.111z"/>
	<path d="M69.126,20.621c-0.105,0.118-0.258,0.247-0.457,0.388c-0.2,0.141-0.417,0.275-0.651,0.404
		c-0.234,0.13-0.473,0.253-0.713,0.37s-0.454,0.211-0.642,0.281H58.34c0.023,0.845,0.138,1.622,0.344,2.331
		c0.205,0.71,0.495,1.322,0.871,1.839c0.375,0.517,0.829,0.918,1.363,1.205c0.533,0.288,1.146,0.431,1.839,0.431
		c0.363,0,0.718-0.02,1.064-0.061c0.346-0.041,0.722-0.139,1.126-0.291s0.859-0.366,1.363-0.643
		c0.505-0.275,1.103-0.653,1.795-1.135c0.07,0.035,0.155,0.105,0.255,0.211s0.194,0.221,0.282,0.344s0.167,0.237,0.237,0.344
		c0.07,0.105,0.117,0.182,0.141,0.229c-0.81,0.82-1.537,1.489-2.182,2.006c-0.646,0.516-1.265,0.918-1.856,1.205
		c-0.593,0.287-1.182,0.484-1.769,0.59s-1.231,0.158-1.936,0.158c-0.997,0-1.938-0.2-2.824-0.599
		c-0.886-0.399-1.659-0.962-2.322-1.689s-1.188-1.601-1.575-2.622c-0.387-1.02-0.58-2.152-0.58-3.396
		c0-1.595,0.302-3.018,0.906-4.267c0.604-1.249,1.51-2.313,2.719-3.193c0.305-0.223,0.647-0.437,1.029-0.643
		c0.381-0.205,0.779-0.381,1.196-0.527c0.416-0.146,0.847-0.265,1.293-0.353c0.445-0.088,0.892-0.132,1.337-0.132
		c1.15,0,2.145,0.2,2.982,0.599c0.839,0.398,1.531,0.93,2.077,1.592c0.545,0.663,0.95,1.429,1.214,2.297
		S69.126,19.672,69.126,20.621z M61.824,15.519c-0.552,0-1.026,0.105-1.426,0.317c-0.398,0.211-0.736,0.516-1.012,0.915
		c-0.275,0.398-0.492,0.879-0.65,1.442s-0.273,1.196-0.344,1.9h5.859c0.27,0,0.449-0.044,0.537-0.132s0.132-0.255,0.132-0.502
		c0-0.352-0.047-0.753-0.141-1.205c-0.094-0.451-0.262-0.88-0.502-1.284c-0.24-0.405-0.56-0.748-0.959-1.029
		C62.921,15.659,62.422,15.519,61.824,15.519z"/>
	<path d="M85.983,26.956c-0.763,0.867-1.467,1.557-2.112,2.066c-0.645,0.511-1.258,0.9-1.838,1.171
		c-0.581,0.27-1.142,0.442-1.681,0.519c-0.54,0.076-1.085,0.115-1.637,0.115c-0.95,0-1.865-0.191-2.745-0.572
		c-0.879-0.381-1.656-0.93-2.331-1.645c-0.675-0.716-1.214-1.59-1.618-2.623c-0.405-1.031-0.607-2.199-0.607-3.501
		c0-1.267,0.234-2.451,0.704-3.554c0.469-1.103,1.123-2.062,1.962-2.877c0.838-0.815,1.838-1.461,3-1.936
		c1.161-0.476,2.439-0.713,3.835-0.713c0.388,0,0.824,0.032,1.312,0.097c0.486,0.064,0.965,0.158,1.434,0.282
		c0.47,0.123,0.9,0.27,1.294,0.439c0.393,0.17,0.688,0.36,0.888,0.572c0.012,0.094-0.003,0.258-0.044,0.492
		c-0.041,0.235-0.1,0.505-0.176,0.81s-0.167,0.628-0.272,0.968s-0.211,0.663-0.316,0.968s-0.212,0.58-0.317,0.827
		c-0.105,0.246-0.193,0.422-0.264,0.527l-1.179-0.176c-0.388-1.149-0.862-2.038-1.426-2.666c-0.562-0.627-1.313-0.941-2.252-0.941
		c-0.517,0-1.012,0.118-1.486,0.353c-0.476,0.234-0.895,0.606-1.259,1.117c-0.363,0.51-0.656,1.164-0.88,1.962
		c-0.223,0.798-0.334,1.766-0.334,2.903c0,0.938,0.12,1.774,0.361,2.507c0.24,0.733,0.568,1.352,0.985,1.856
		c0.416,0.505,0.905,0.892,1.469,1.161s1.161,0.404,1.795,0.404c0.328,0,0.645-0.02,0.95-0.061c0.305-0.041,0.639-0.133,1.003-0.273
		c0.363-0.141,0.771-0.346,1.223-0.615c0.451-0.27,0.988-0.634,1.61-1.092L85.983,26.956z"/>
	<path d="M99.637,27.571c-1.561,1.127-2.88,1.951-3.959,2.473s-1.93,0.783-2.552,0.783c-0.504,0-0.982-0.098-1.434-0.291
		c-0.452-0.193-0.845-0.489-1.179-0.889c-0.334-0.398-0.602-0.9-0.801-1.504s-0.299-1.316-0.299-2.139v-9.87h-2.129l-0.511-0.634
		l1.372-1.565h1.268v-3.678l3.554-2.622l0.669,0.581v5.719h5.366l0.634,0.633c-0.105,0.2-0.237,0.408-0.396,0.625
		c-0.159,0.217-0.32,0.429-0.484,0.634s-0.325,0.39-0.483,0.554c-0.158,0.165-0.297,0.288-0.414,0.37
		c-0.141-0.07-0.319-0.142-0.536-0.212c-0.218-0.07-0.461-0.138-0.73-0.202s-0.555-0.114-0.854-0.149s-0.606-0.053-0.924-0.053
		h-1.179v8.234c0,0.599,0.035,1.106,0.105,1.522s0.173,0.75,0.308,1.002c0.135,0.253,0.294,0.435,0.476,0.546
		c0.182,0.112,0.384,0.167,0.607,0.167c0.211,0,0.431-0.02,0.659-0.062c0.229-0.04,0.49-0.108,0.783-0.202s0.625-0.226,0.994-0.396
		c0.369-0.17,0.801-0.389,1.293-0.659L99.637,27.571z"/>
	<path d="M117.18,19.707c0,1.513-0.202,2.944-0.606,4.292c-0.405,1.35-0.971,2.529-1.698,3.537c-0.728,1.01-1.596,1.81-2.604,2.402
		c-1.009,0.592-2.123,0.889-3.343,0.889s-2.312-0.297-3.272-0.889c-0.962-0.593-1.783-1.393-2.464-2.402
		c-0.681-1.008-1.199-2.188-1.557-3.537c-0.358-1.348-0.537-2.779-0.537-4.292c0-1.514,0.19-2.944,0.572-4.294
		c0.381-1.349,0.93-2.53,1.645-3.545c0.716-1.015,1.584-1.818,2.604-2.411c1.021-0.592,2.164-0.889,3.431-0.889
		c1.243,0,2.353,0.294,3.326,0.88c0.974,0.587,1.795,1.385,2.463,2.394c0.669,1.009,1.176,2.19,1.522,3.545
		C117.007,16.742,117.18,18.182,117.18,19.707z M112.588,20.357c0-1.606-0.092-3.006-0.273-4.196s-0.437-2.179-0.765-2.965
		c-0.329-0.786-0.716-1.372-1.162-1.76c-0.445-0.387-0.932-0.58-1.46-0.58c-0.54,0-1.009,0.146-1.407,0.439
		c-0.399,0.293-0.733,0.763-1.003,1.408c-0.271,0.645-0.473,1.48-0.607,2.507s-0.202,2.272-0.202,3.739
		c0,3.226,0.313,5.63,0.941,7.214c0.627,1.583,1.527,2.375,2.7,2.375c0.54,0,1.015-0.146,1.426-0.439
		c0.41-0.294,0.748-0.766,1.012-1.417c0.264-0.65,0.463-1.495,0.598-2.533S112.588,21.848,112.588,20.357z"/>
	<path d="M120.98,30.299v-1.46c0.915-0.105,1.677-0.227,2.287-0.361c0.609-0.135,1.097-0.272,1.461-0.414
		c0.363-0.141,0.621-0.277,0.773-0.412s0.229-0.268,0.229-0.396V14.287c0-0.469-0.018-0.833-0.054-1.091
		c-0.035-0.258-0.123-0.469-0.264-0.634c-0.07-0.07-0.196-0.129-0.378-0.176c-0.183-0.047-0.449-0.064-0.801-0.053
		s-0.795,0.053-1.328,0.123c-0.534,0.07-1.188,0.188-1.962,0.353l-0.511-1.426c0.328-0.07,0.736-0.176,1.223-0.316
		c0.487-0.141,1.006-0.299,1.558-0.476c0.551-0.176,1.12-0.366,1.707-0.571c0.586-0.205,1.146-0.407,1.68-0.607
		c0.534-0.199,1.026-0.387,1.479-0.562c0.451-0.177,0.818-0.329,1.1-0.458l0.774,0.739v18.123c0,0.117,0.064,0.244,0.193,0.379
		s0.357,0.271,0.687,0.412c0.328,0.142,0.776,0.282,1.346,0.423c0.569,0.142,1.293,0.265,2.173,0.37v1.46H120.98z"/>
</g>
</svg>
